<?xml version="1.0" encoding="UTF-8" standalone="no"?>
<!-- Created with Inkscape (http://www.inkscape.org/) -->
<svg
   xmlns:svg="http://www.w3.org/2000/svg"
   xmlns="http://www.w3.org/2000/svg"
   version="1.0"
   width="70"
   height="77.580002"
   viewBox="0 0 538.092 261.675"
   id="Layer_1"
   xml:space="preserve"><defs
     id="defs859" /><path
     d="M 132.46534,427.10202 C 131.68895,403.2261 133.67105,384.44177 134.90866,360.63504 C 135.1854,355.46936 127.75973,352.18699 126.78347,349.11218 C 120.21106,328.31877 104.79857,355.66153 102.53858,363.00264 C 98.856499,374.93291 96.688759,388.43133 96.788682,400.95351 C 96.91168,415.85096 88.140706,412.41095 93.075769,426.97017"
     style="fill:#bf0000;stroke:#000000;stroke-width:3.32485747"
     id="path141" /><path
     d="M 99.980567,-165.39319 C 92.489863,-133.91412 94.64416,-80.4915 156.87819,-15.276052 C 218.45129,49.233495 376.0277,86.846127 413.30211,143.23817 C 431.23594,170.35801 434.24157,136.69651 434.89497,124.94304 C 435.53299,113.45094 440.83705,89.651894 396.19077,65.414691 C 344.03429,37.103364 204.82988,-40.458759 204.82988,-40.458759 C 204.82988,-40.458759 126.07611,-86.905479 114.08734,-165.42233 M 408.21329,390.71438 C 426.14713,417.83422 429.15275,384.17272 429.80616,372.41157 C 430.44417,360.91945 435.74823,337.13579 391.10197,312.89858 C 338.94547,284.58726 199.74106,207.01745 199.74106,207.01745 C 199.74106,207.01745 100.24016,148.34236 107.88875,51.378176 C 107.88875,51.378176 51.020115,126.60344 151.78938,232.20016 C 213.36248,296.71739 370.93889,334.31466 408.21329,390.71438 z "
     style="fill:#8f0000;stroke:#000000;stroke-width:3.32485747"
     id="path133" /><path
     d="M 244.47957,99.721905 C 244.47957,99.721905 383.64554,105.65629 384.04527,105.67166 C 391.11734,105.97145 404.70031,102.38161 404.82331,93.487721 C 405.03855,77.029792 371.86902,80.196848 361.57608,79.758687 C 343.25021,78.943862 324.92433,78.129037 306.59846,77.329586 C 301.4174,77.106662 238.01478,77.813868 236.95397,74.254774 L 244.47957,99.721905 z M 272.76015,-124.66247 L 412.44884,-124.66247 L 423.93326,-124.66247 C 423.93326,-124.66247 427.7614,-119.87346 432.06614,-132.79535 C 436.37088,-145.71725 433.50362,-149.54539 433.50362,-149.54539 L 264.15837,-149.77599 L 272.76015,-124.66247 z M 260.32254,-76.818406 L 273.72104,-90.209211 L 378.00327,-109.34991 C 378.00327,-109.34991 402.87849,-96.9123 393.31582,-87.341948 C 383.75317,-77.771598 379.44074,-82.076334 379.44074,-82.076334 L 273.61341,-66.179558 L 260.32254,-76.818406 z M 265.12693,146.62047 L 416.16936,146.10544 L 426.26243,156.1985 L 415.78501,166.67592 L 267.96345,170.02747 C 267.96345,170.02747 257.43991,172.04916 257.43991,159.50393 C 257.43991,146.9587 265.12693,146.62047 265.12693,146.62047 z M 262.82082,211.24531 L 353.22028,194.03406 L 347.38583,212.12933 L 328.25282,223.60606 L 266.92569,227.89542 C 266.92569,227.88773 255.61807,215.39631 262.82082,211.24531 z M 266.32611,17.693615 C 277.2955,22.551817 334.11801,30.838435 320.35823,51.093756 C 310.84939,65.099523 280.19351,44.436789 269.62385,39.855319 C 263.62027,37.257104 256.57896,35.327659 251.09042,31.929993 C 259.23867,30.392587 261.36797,19.523128 257.48602,13.119833 C 260.33791,14.841728 263.29742,16.348385 266.32611,17.693615 z M 254.11911,348.48185 C 254.11911,348.48185 377.84953,354.40854 378.20313,354.43161 C 384.49112,354.7314 396.56745,351.13387 396.67506,342.24767 C 396.86724,325.78973 367.3721,328.95679 358.22454,328.51094 C 341.92804,327.70381 325.63923,326.88899 309.34273,326.08953 C 304.73051,325.85892 248.36153,326.57381 247.42371,323.01472 L 254.11911,348.48185 z M 272.53723,407.30299 L 408.28247,407.30299 L 419.44404,407.30299 C 419.44404,407.30299 423.15687,412.09201 427.3463,399.16243 C 431.52804,386.25591 428.73766,382.42008 428.73766,382.42008 L 264.17374,382.18178 L 272.53723,407.30299 z "
     style="fill:#7dff00;stroke:#000000;stroke-width:3.32485747"
     id="path139" /><path
     d="M 113.93845,-124.66247 L 277.54918,-124.66247 C 277.54918,-124.66247 285.68204,-122.7484 285.68204,-132.79535 C 285.68204,-142.8423 278.74835,-149.77599 278.74835,-149.77599 L 105.32898,-149.77599 C 105.32129,-149.77599 94.751619,-136.10846 113.93845,-124.66247 z M 273.61341,-66.187245 C 273.12913,-64.680587 257.67052,-62.751143 256.0793,-62.405226 C 243.14971,-59.607148 230.22013,-56.80907 217.29055,-54.018678 C 205.43715,-51.458898 193.69137,-49.291155 181.92253,-46.969672 C 173.95109,-45.409206 161.68258,-39.643934 155.89425,-48.568575 C 152.9578,-53.103922 152.65032,-61.021561 159.66858,-65.157183 C 159.66858,-65.157183 261.7677,-87.864667 275.88108,-90.478256 L 278.49468,-81.607425 C 278.50236,-81.599738 273.61341,-66.194932 273.61341,-66.187245 z M 110.97125,94.210302 L 245.89398,99.975569 C 245.89398,99.975569 252.51251,102.18175 252.94299,92.134804 C 253.36578,82.095543 247.94642,74.931233 247.94642,74.931233 L 104.93693,68.820045 C 104.94462,68.820045 95.651004,82.095543 110.97125,94.210302 z M 135.93872,173.85561 C 135.93872,173.85561 120.62616,177.68375 117.7589,165.24613 C 114.88395,152.80853 126.36838,152.80853 126.36838,152.80853 L 276.5806,146.10544 L 288.54162,158.07414 L 276.5806,170.03516 L 135.93872,173.85561 z M 199.08766,240.83269 C 199.08766,240.83269 187.60325,245.61402 187.60325,229.34828 C 187.60325,213.0902 193.82205,219.30132 193.82205,219.30132 L 284.69811,208.75472 L 291.41657,215.47318 L 281.84622,225.03585 L 199.08766,240.83269 z M 187.96454,2.2580612 C 183.99034,-5.144548 189.49425,-13.546471 201.23235,-12.954569 C 225.39268,-11.747706 243.6955,10.38325 266.87188,15.864102 C 272.87546,17.286203 256.23304,28.355524 254.58033,28.770624 C 245.25597,31.092107 239.94423,28.063418 231.5423,24.119972 C 219.10469,18.262455 205.35259,15.45669 193.62988,8.0463941 C 190.9471,6.3398733 189.07915,4.3335591 187.96454,2.2580612 z M 135.40832,342.97025 L 255.36441,348.73551 C 255.36441,348.73551 261.26036,350.93401 261.63702,340.89475 C 262.01368,330.8478 257.19392,323.69118 257.19392,323.69118 L 130.04278,317.57999 C 130.05046,317.57999 121.7869,330.85548 135.40832,342.97025 z M 118.19706,407.30299 L 277.18789,407.30299 C 277.18789,407.30299 285.09014,409.21706 285.09014,399.16243 C 285.09014,389.11548 278.34863,382.18178 278.34863,382.18178 L 109.82589,382.18178 C 109.82589,382.18947 99.556016,395.84932 118.19706,407.30299 z "
     style="fill:#ffbf00;stroke:#000000;stroke-width:3.32485747"
     id="path135" /><path
     d="M 120.64299,-165.40542 C 111.16204,-146.80404 104.9786,-125.0416 110.42547,-104.25341 C 119.75753,-68.63172 161.45197,-11.117369 161.45197,-11.117369 C 161.45197,-11.117369 104.04524,-59.599461 96.388957,-122.11038 L 96.388957,-165.41249 M 428.58669,-165.42702 C 430.808,-160.32107 430.26414,-154.9077 424.89414,-149.5377 C 414.04775,-138.69899 389.79516,-127.29913 357.91706,-111.90201 C 326.03895,-96.4972 176.1342,-25.791908 145.51676,4.8255282 C 114.89932,35.442965 102.14655,49.487167 90.662122,92.849697 C 90.662122,92.849697 92.384022,118.80879 90.662122,142.60783 C 90.662122,142.60783 99.486837,204.15019 151.79706,232.20784 C 151.78938,232.20016 99.58676,185.96268 107.23536,143.8762 C 107.23536,143.8762 104.04524,120.27702 152.52733,71.794925 C 206.09823,18.22402 360.43072,-50.744004 381.51624,-57.700765 C 488.0354,-92.768991 431.90472,-106.80551 446.57925,-149.5377 C 446.57925,-149.5377 449.54099,-155.69078 440.45892,-165.39673 M 442.30811,427.08733 C 442.17374,416.65365 442.10271,406.88674 442.1054,395.64177 C 442.11308,376.53181 445.17253,361.36531 437.20876,346.04506 C 435.5253,342.8165 433.36525,339.57258 430.57485,336.2979 C 419.57472,323.33757 364.28961,288.27704 350.35302,288.83819 C 402.56333,321.83091 424.69428,348.036 426.48535,362.00333 C 428.23032,375.51713 416.27698,387.70875 411.81082,399.99262 C 408.92818,407.91795 410.34513,418.82039 410.06071,427.06857 M 104.36618,427.06096 C 104.51461,422.62477 101.15492,421.53937 109.13405,400.19249 C 111.76302,393.15886 114.99926,386.4327 118.96576,380.12166 C 125.06157,370.43601 133.23289,361.62666 141.30427,353.57835 C 168.7854,326.15871 203.23866,306.37999 239.27546,292.49721 C 345.15659,251.6714 398.73519,214.67373 398.73519,214.67373 C 398.73519,214.67373 437.0089,190.43653 447.21727,166.19164 C 447.21727,166.19164 439.561,127.92561 447.21727,106.2405 C 447.21727,106.2405 435.05639,86.807693 390.20258,62.163078 C 390.20258,62.163078 425.53216,84.555393 425.53216,106.2405 C 425.53216,127.92561 389.17252,163.01689 377.69579,163.01689 C 377.69579,163.01689 179.32431,260.58836 179.32431,260.59604 C 166.36398,266.97627 157.86213,278.52989 147.11566,288.13098 C 136.99185,297.17861 126.59899,306.07251 119.64991,317.93359 C 110.89438,332.87718 101.85443,347.98219 96.212163,364.4555 C 91.115655,379.35295 87.81508,411.87539 90.441197,427.03652"
     style="fill:#ff0000;stroke:#000000;stroke-width:3.32485747"
     id="path149" /></svg>